<mxfile host="app.diagrams.net" agent="Mozilla/5.0 (Windows NT 10.0; Win64; x64) AppleWebKit/537.36 (KHTML, like Gecko) Chrome/130.0.0.0 Safari/537.36" version="24.8.4">
  <diagram name="Page-1" id="c4acf3e9-155e-7222-9cf6-157b1a14988f">
    <mxGraphModel dx="2008" dy="407" grid="1" gridSize="10" guides="1" tooltips="1" connect="1" arrows="1" fold="1" page="1" pageScale="1" pageWidth="850" pageHeight="1100" background="none" math="0" shadow="0">
      <root>
        <mxCell id="0" />
        <mxCell id="1" parent="0" />
        <mxCell id="DPEQAwRGzLsRV_EmGPdb-1" value="&lt;font style=&quot;font-size: 14px;&quot;&gt;&amp;lt;&amp;lt;abstract&amp;gt;&amp;gt;&lt;b&gt;Envio&lt;/b&gt;&lt;/font&gt;" style="swimlane;fontStyle=0;align=center;verticalAlign=top;childLayout=stackLayout;horizontal=1;startSize=55;horizontalStack=0;resizeParent=1;resizeParentMax=0;resizeLast=0;collapsible=0;marginBottom=0;html=1;whiteSpace=wrap;" parent="1" vertex="1">
          <mxGeometry x="285" y="90" width="280" height="270" as="geometry" />
        </mxCell>
        <mxCell id="DPEQAwRGzLsRV_EmGPdb-2" value="&lt;span data-lucid-content=&quot;{&amp;quot;t&amp;quot;:&amp;quot;- fechaDespacho:Localdate\n- dirOrigen:String\n- dirDestino:String\n-pesoGramos: Real&amp;quot;,&amp;quot;m&amp;quot;:[{&amp;quot;s&amp;quot;:0,&amp;quot;n&amp;quot;:&amp;quot;a&amp;quot;,&amp;quot;v&amp;quot;:&amp;quot;center&amp;quot;},{&amp;quot;s&amp;quot;:0,&amp;quot;n&amp;quot;:&amp;quot;c&amp;quot;,&amp;quot;v&amp;quot;:&amp;quot;#282c33ff&amp;quot;,&amp;quot;e&amp;quot;:82},{&amp;quot;s&amp;quot;:0,&amp;quot;n&amp;quot;:&amp;quot;fsp&amp;quot;,&amp;quot;v&amp;quot;:&amp;quot;ss_presetShapeStyle1_textStyle&amp;quot;,&amp;quot;e&amp;quot;:82},{&amp;quot;s&amp;quot;:0,&amp;quot;n&amp;quot;:&amp;quot;s&amp;quot;,&amp;quot;v&amp;quot;:22.22222222222222,&amp;quot;e&amp;quot;:82},{&amp;quot;s&amp;quot;:26,&amp;quot;n&amp;quot;:&amp;quot;a&amp;quot;,&amp;quot;v&amp;quot;:&amp;quot;center&amp;quot;},{&amp;quot;s&amp;quot;:45,&amp;quot;n&amp;quot;:&amp;quot;a&amp;quot;,&amp;quot;v&amp;quot;:&amp;quot;center&amp;quot;},{&amp;quot;s&amp;quot;:65,&amp;quot;n&amp;quot;:&amp;quot;a&amp;quot;,&amp;quot;v&amp;quot;:&amp;quot;center&amp;quot;}]}&quot; data-lucid-type=&quot;application/vnd.lucid.text&quot;&gt;&lt;span style=&quot;color:#282c33;font-size:16.666666666666664px;&quot;&gt;- fechaDespacho:Localdate&lt;br&gt;&lt;/span&gt;&lt;span style=&quot;color:#282c33;font-size:16.666666666666664px;&quot;&gt;- dirOrigen:String&lt;br&gt;&lt;/span&gt;&lt;span style=&quot;color:#282c33;font-size:16.666666666666664px;&quot;&gt;- dirDestino:String&lt;br&gt;&lt;/span&gt;&lt;span style=&quot;color:#282c33;font-size:16.666666666666664px;&quot;&gt;-pesoGramos: Real&lt;/span&gt;&lt;/span&gt;" style="text;html=1;strokeColor=none;fillColor=none;align=center;verticalAlign=middle;spacingLeft=4;spacingRight=4;overflow=hidden;rotatable=0;points=[[0,0.5],[1,0.5]];portConstraint=eastwest;whiteSpace=wrap;" parent="DPEQAwRGzLsRV_EmGPdb-1" vertex="1">
          <mxGeometry y="55" width="280" height="135" as="geometry" />
        </mxCell>
        <mxCell id="DPEQAwRGzLsRV_EmGPdb-6" value="" style="line;strokeWidth=1;fillColor=none;align=left;verticalAlign=middle;spacingTop=-1;spacingLeft=3;spacingRight=3;rotatable=0;labelPosition=right;points=[];portConstraint=eastwest;" parent="DPEQAwRGzLsRV_EmGPdb-1" vertex="1">
          <mxGeometry y="190" width="280" height="8" as="geometry" />
        </mxCell>
        <mxCell id="DPEQAwRGzLsRV_EmGPdb-8" value="&lt;font style=&quot;font-size: 14px;&quot;&gt;+ &amp;lt;&amp;lt;abstract&amp;gt;&amp;gt; calcularMonto(): Real&lt;/font&gt;&lt;div&gt;&lt;font size=&quot;3&quot;&gt;+ getPesoEnGramos():Real&lt;/font&gt;&lt;/div&gt;&lt;div&gt;&lt;font size=&quot;3&quot;&gt;+ getFechaDespacho():Localdate&lt;/font&gt;&lt;/div&gt;" style="text;html=1;strokeColor=none;fillColor=none;align=left;verticalAlign=middle;spacingLeft=4;spacingRight=4;overflow=hidden;rotatable=0;points=[[0,0.5],[1,0.5]];portConstraint=eastwest;whiteSpace=wrap;" parent="DPEQAwRGzLsRV_EmGPdb-1" vertex="1">
          <mxGeometry y="198" width="280" height="72" as="geometry" />
        </mxCell>
        <mxCell id="DPEQAwRGzLsRV_EmGPdb-9" value="&lt;b&gt;&lt;font style=&quot;font-size: 14px;&quot;&gt;Locales&lt;/font&gt;&lt;/b&gt;" style="swimlane;fontStyle=0;align=center;verticalAlign=top;childLayout=stackLayout;horizontal=1;startSize=55;horizontalStack=0;resizeParent=1;resizeParentMax=0;resizeLast=0;collapsible=0;marginBottom=0;html=1;whiteSpace=wrap;" parent="1" vertex="1">
          <mxGeometry x="-130" y="450" width="280" height="173" as="geometry" />
        </mxCell>
        <mxCell id="DPEQAwRGzLsRV_EmGPdb-10" value="&lt;font color=&quot;#282c33&quot;&gt;&lt;span style=&quot;font-size: 16.6667px;&quot;&gt;- entregaRapida: boolean&lt;/span&gt;&lt;/font&gt;" style="text;html=1;strokeColor=none;fillColor=none;align=center;verticalAlign=middle;spacingLeft=4;spacingRight=4;overflow=hidden;rotatable=0;points=[[0,0.5],[1,0.5]];portConstraint=eastwest;whiteSpace=wrap;" parent="DPEQAwRGzLsRV_EmGPdb-9" vertex="1">
          <mxGeometry y="55" width="280" height="75" as="geometry" />
        </mxCell>
        <mxCell id="DPEQAwRGzLsRV_EmGPdb-11" value="" style="line;strokeWidth=1;fillColor=none;align=left;verticalAlign=middle;spacingTop=-1;spacingLeft=3;spacingRight=3;rotatable=0;labelPosition=right;points=[];portConstraint=eastwest;" parent="DPEQAwRGzLsRV_EmGPdb-9" vertex="1">
          <mxGeometry y="130" width="280" height="8" as="geometry" />
        </mxCell>
        <mxCell id="DPEQAwRGzLsRV_EmGPdb-12" value="&lt;font style=&quot;font-size: 14px;&quot;&gt;+ calcularMonto(): Real&lt;/font&gt;" style="text;html=1;strokeColor=none;fillColor=none;align=left;verticalAlign=middle;spacingLeft=4;spacingRight=4;overflow=hidden;rotatable=0;points=[[0,0.5],[1,0.5]];portConstraint=eastwest;whiteSpace=wrap;" parent="DPEQAwRGzLsRV_EmGPdb-9" vertex="1">
          <mxGeometry y="138" width="280" height="35" as="geometry" />
        </mxCell>
        <mxCell id="DPEQAwRGzLsRV_EmGPdb-13" value="&lt;b&gt;&lt;font style=&quot;font-size: 14px;&quot;&gt;Interurbanos&lt;/font&gt;&lt;/b&gt;" style="swimlane;fontStyle=0;align=center;verticalAlign=top;childLayout=stackLayout;horizontal=1;startSize=55;horizontalStack=0;resizeParent=1;resizeParentMax=0;resizeLast=0;collapsible=0;marginBottom=0;html=1;whiteSpace=wrap;" parent="1" vertex="1">
          <mxGeometry x="285" y="450" width="280" height="173" as="geometry" />
        </mxCell>
        <mxCell id="DPEQAwRGzLsRV_EmGPdb-14" value="&lt;font color=&quot;#282c33&quot;&gt;&lt;span style=&quot;font-size: 16.6667px;&quot;&gt;- distanciaKm: double&lt;/span&gt;&lt;/font&gt;" style="text;html=1;strokeColor=none;fillColor=none;align=center;verticalAlign=middle;spacingLeft=4;spacingRight=4;overflow=hidden;rotatable=0;points=[[0,0.5],[1,0.5]];portConstraint=eastwest;whiteSpace=wrap;" parent="DPEQAwRGzLsRV_EmGPdb-13" vertex="1">
          <mxGeometry y="55" width="280" height="75" as="geometry" />
        </mxCell>
        <mxCell id="DPEQAwRGzLsRV_EmGPdb-15" value="" style="line;strokeWidth=1;fillColor=none;align=left;verticalAlign=middle;spacingTop=-1;spacingLeft=3;spacingRight=3;rotatable=0;labelPosition=right;points=[];portConstraint=eastwest;" parent="DPEQAwRGzLsRV_EmGPdb-13" vertex="1">
          <mxGeometry y="130" width="280" height="8" as="geometry" />
        </mxCell>
        <mxCell id="DPEQAwRGzLsRV_EmGPdb-16" value="&lt;font style=&quot;font-size: 14px;&quot;&gt;+ calcularMonto(): Real&lt;/font&gt;" style="text;html=1;strokeColor=none;fillColor=none;align=left;verticalAlign=middle;spacingLeft=4;spacingRight=4;overflow=hidden;rotatable=0;points=[[0,0.5],[1,0.5]];portConstraint=eastwest;whiteSpace=wrap;" parent="DPEQAwRGzLsRV_EmGPdb-13" vertex="1">
          <mxGeometry y="138" width="280" height="35" as="geometry" />
        </mxCell>
        <mxCell id="DPEQAwRGzLsRV_EmGPdb-17" value="&lt;b&gt;Internacionales&lt;/b&gt;" style="swimlane;fontStyle=0;align=center;verticalAlign=top;childLayout=stackLayout;horizontal=1;startSize=55;horizontalStack=0;resizeParent=1;resizeParentMax=0;resizeLast=0;collapsible=0;marginBottom=0;html=1;whiteSpace=wrap;" parent="1" vertex="1">
          <mxGeometry x="670" y="450" width="280" height="173" as="geometry" />
        </mxCell>
        <mxCell id="DPEQAwRGzLsRV_EmGPdb-18" value="&lt;font color=&quot;#282c33&quot;&gt;&lt;span style=&quot;font-size: 16.6667px;&quot;&gt;-&lt;/span&gt;&lt;/font&gt;" style="text;html=1;strokeColor=none;fillColor=none;align=center;verticalAlign=middle;spacingLeft=4;spacingRight=4;overflow=hidden;rotatable=0;points=[[0,0.5],[1,0.5]];portConstraint=eastwest;whiteSpace=wrap;" parent="DPEQAwRGzLsRV_EmGPdb-17" vertex="1">
          <mxGeometry y="55" width="280" height="75" as="geometry" />
        </mxCell>
        <mxCell id="DPEQAwRGzLsRV_EmGPdb-19" value="" style="line;strokeWidth=1;fillColor=none;align=left;verticalAlign=middle;spacingTop=-1;spacingLeft=3;spacingRight=3;rotatable=0;labelPosition=right;points=[];portConstraint=eastwest;" parent="DPEQAwRGzLsRV_EmGPdb-17" vertex="1">
          <mxGeometry y="130" width="280" height="8" as="geometry" />
        </mxCell>
        <mxCell id="DPEQAwRGzLsRV_EmGPdb-20" value="&lt;font style=&quot;font-size: 14px;&quot;&gt;+ calcularMonto(): Real&lt;/font&gt;" style="text;html=1;strokeColor=none;fillColor=none;align=left;verticalAlign=middle;spacingLeft=4;spacingRight=4;overflow=hidden;rotatable=0;points=[[0,0.5],[1,0.5]];portConstraint=eastwest;whiteSpace=wrap;" parent="DPEQAwRGzLsRV_EmGPdb-17" vertex="1">
          <mxGeometry y="138" width="280" height="35" as="geometry" />
        </mxCell>
        <mxCell id="DPEQAwRGzLsRV_EmGPdb-22" style="edgeStyle=orthogonalEdgeStyle;rounded=0;orthogonalLoop=1;jettySize=auto;html=1;exitX=0.5;exitY=0;exitDx=0;exitDy=0;entryX=0.537;entryY=0.996;entryDx=0;entryDy=0;entryPerimeter=0;" parent="1" source="DPEQAwRGzLsRV_EmGPdb-9" target="DPEQAwRGzLsRV_EmGPdb-8" edge="1">
          <mxGeometry relative="1" as="geometry" />
        </mxCell>
        <mxCell id="DPEQAwRGzLsRV_EmGPdb-23" style="edgeStyle=orthogonalEdgeStyle;rounded=0;orthogonalLoop=1;jettySize=auto;html=1;entryX=0.537;entryY=0.996;entryDx=0;entryDy=0;entryPerimeter=0;" parent="1" source="DPEQAwRGzLsRV_EmGPdb-13" target="DPEQAwRGzLsRV_EmGPdb-8" edge="1">
          <mxGeometry relative="1" as="geometry" />
        </mxCell>
        <mxCell id="DPEQAwRGzLsRV_EmGPdb-24" style="edgeStyle=orthogonalEdgeStyle;rounded=0;orthogonalLoop=1;jettySize=auto;html=1;entryX=0.537;entryY=0.996;entryDx=0;entryDy=0;entryPerimeter=0;" parent="1" source="DPEQAwRGzLsRV_EmGPdb-17" target="DPEQAwRGzLsRV_EmGPdb-8" edge="1">
          <mxGeometry relative="1" as="geometry" />
        </mxCell>
        <mxCell id="DPEQAwRGzLsRV_EmGPdb-29" style="edgeStyle=orthogonalEdgeStyle;rounded=0;orthogonalLoop=1;jettySize=auto;html=1;entryX=1;entryY=0.5;entryDx=0;entryDy=0;" parent="1" target="DPEQAwRGzLsRV_EmGPdb-2" edge="1">
          <mxGeometry relative="1" as="geometry">
            <mxPoint x="1200" y="155" as="sourcePoint" />
          </mxGeometry>
        </mxCell>
        <mxCell id="DPEQAwRGzLsRV_EmGPdb-30" value="0..* envios" style="text;html=1;align=center;verticalAlign=middle;resizable=0;points=[];autosize=1;strokeColor=none;fillColor=none;" parent="1" vertex="1">
          <mxGeometry x="580" y="178" width="80" height="30" as="geometry" />
        </mxCell>
        <mxCell id="DPEQAwRGzLsRV_EmGPdb-31" value="&lt;b&gt;&lt;font style=&quot;font-size: 14px;&quot;&gt;Persona&lt;/font&gt;&lt;/b&gt;" style="swimlane;fontStyle=0;align=center;verticalAlign=top;childLayout=stackLayout;horizontal=1;startSize=55;horizontalStack=0;resizeParent=1;resizeParentMax=0;resizeLast=0;collapsible=0;marginBottom=0;html=1;whiteSpace=wrap;" parent="1" vertex="1">
          <mxGeometry x="1060" y="390" width="280" height="173" as="geometry" />
        </mxCell>
        <mxCell id="DPEQAwRGzLsRV_EmGPdb-32" value="&lt;div&gt;&lt;span style=&quot;font-size: 16.6667px; color: rgb(40, 44, 51); background-color: initial;&quot;&gt;- dni: String&lt;/span&gt;&lt;/div&gt;" style="text;html=1;strokeColor=none;fillColor=none;align=center;verticalAlign=middle;spacingLeft=4;spacingRight=4;overflow=hidden;rotatable=0;points=[[0,0.5],[1,0.5]];portConstraint=eastwest;whiteSpace=wrap;" parent="DPEQAwRGzLsRV_EmGPdb-31" vertex="1">
          <mxGeometry y="55" width="280" height="75" as="geometry" />
        </mxCell>
        <mxCell id="DPEQAwRGzLsRV_EmGPdb-33" value="" style="line;strokeWidth=1;fillColor=none;align=left;verticalAlign=middle;spacingTop=-1;spacingLeft=3;spacingRight=3;rotatable=0;labelPosition=right;points=[];portConstraint=eastwest;" parent="DPEQAwRGzLsRV_EmGPdb-31" vertex="1">
          <mxGeometry y="130" width="280" height="8" as="geometry" />
        </mxCell>
        <mxCell id="DPEQAwRGzLsRV_EmGPdb-34" value="&lt;font style=&quot;font-size: 14px;&quot;&gt;+ calcularMonto(): Real&lt;/font&gt;" style="text;html=1;strokeColor=none;fillColor=none;align=left;verticalAlign=middle;spacingLeft=4;spacingRight=4;overflow=hidden;rotatable=0;points=[[0,0.5],[1,0.5]];portConstraint=eastwest;whiteSpace=wrap;" parent="DPEQAwRGzLsRV_EmGPdb-31" vertex="1">
          <mxGeometry y="138" width="280" height="35" as="geometry" />
        </mxCell>
        <mxCell id="DPEQAwRGzLsRV_EmGPdb-35" style="edgeStyle=orthogonalEdgeStyle;rounded=0;orthogonalLoop=1;jettySize=auto;html=1;entryX=0.467;entryY=1.046;entryDx=0;entryDy=0;entryPerimeter=0;" parent="1" source="DPEQAwRGzLsRV_EmGPdb-31" edge="1" target="DPEQAwRGzLsRV_EmGPdb-47">
          <mxGeometry relative="1" as="geometry">
            <mxPoint x="1330" y="250" as="targetPoint" />
            <Array as="points">
              <mxPoint x="1200" y="320" />
              <mxPoint x="1331" y="320" />
            </Array>
          </mxGeometry>
        </mxCell>
        <mxCell id="DPEQAwRGzLsRV_EmGPdb-36" value="&lt;b&gt;&lt;font style=&quot;font-size: 14px;&quot;&gt;Corporativos&lt;/font&gt;&lt;/b&gt;" style="swimlane;fontStyle=0;align=center;verticalAlign=top;childLayout=stackLayout;horizontal=1;startSize=55;horizontalStack=0;resizeParent=1;resizeParentMax=0;resizeLast=0;collapsible=0;marginBottom=0;html=1;whiteSpace=wrap;" parent="1" vertex="1">
          <mxGeometry x="1440" y="400" width="280" height="138" as="geometry" />
        </mxCell>
        <mxCell id="DPEQAwRGzLsRV_EmGPdb-37" value="&lt;div&gt;&lt;span style=&quot;font-size: 16.6667px; color: rgb(40, 44, 51); background-color: initial;&quot;&gt;- CUIT: String&lt;/span&gt;&lt;/div&gt;" style="text;html=1;strokeColor=none;fillColor=none;align=center;verticalAlign=middle;spacingLeft=4;spacingRight=4;overflow=hidden;rotatable=0;points=[[0,0.5],[1,0.5]];portConstraint=eastwest;whiteSpace=wrap;" parent="DPEQAwRGzLsRV_EmGPdb-36" vertex="1">
          <mxGeometry y="55" width="280" height="75" as="geometry" />
        </mxCell>
        <mxCell id="DPEQAwRGzLsRV_EmGPdb-38" value="" style="line;strokeWidth=1;fillColor=none;align=left;verticalAlign=middle;spacingTop=-1;spacingLeft=3;spacingRight=3;rotatable=0;labelPosition=right;points=[];portConstraint=eastwest;" parent="DPEQAwRGzLsRV_EmGPdb-36" vertex="1">
          <mxGeometry y="130" width="280" height="8" as="geometry" />
        </mxCell>
        <mxCell id="DPEQAwRGzLsRV_EmGPdb-44" value="&lt;b&gt;&lt;font style=&quot;font-size: 14px;&quot;&gt;Cliente&lt;/font&gt;&lt;/b&gt;" style="swimlane;fontStyle=0;align=center;verticalAlign=top;childLayout=stackLayout;horizontal=1;startSize=55;horizontalStack=0;resizeParent=1;resizeParentMax=0;resizeLast=0;collapsible=0;marginBottom=0;html=1;whiteSpace=wrap;" parent="1" vertex="1">
          <mxGeometry x="1200" y="70" width="280" height="220" as="geometry" />
        </mxCell>
        <mxCell id="DPEQAwRGzLsRV_EmGPdb-45" value="&lt;font color=&quot;#282c33&quot;&gt;&lt;span style=&quot;font-size: 16.6667px;&quot;&gt;- nombre: String&lt;/span&gt;&lt;/font&gt;&lt;div&gt;&lt;font color=&quot;#282c33&quot;&gt;&lt;span style=&quot;font-size: 16.6667px;&quot;&gt;- direccion: String&lt;/span&gt;&lt;/font&gt;&lt;/div&gt;" style="text;html=1;strokeColor=none;fillColor=none;align=center;verticalAlign=middle;spacingLeft=4;spacingRight=4;overflow=hidden;rotatable=0;points=[[0,0.5],[1,0.5]];portConstraint=eastwest;whiteSpace=wrap;" parent="DPEQAwRGzLsRV_EmGPdb-44" vertex="1">
          <mxGeometry y="55" width="280" height="75" as="geometry" />
        </mxCell>
        <mxCell id="DPEQAwRGzLsRV_EmGPdb-46" value="" style="line;strokeWidth=1;fillColor=none;align=left;verticalAlign=middle;spacingTop=-1;spacingLeft=3;spacingRight=3;rotatable=0;labelPosition=right;points=[];portConstraint=eastwest;" parent="DPEQAwRGzLsRV_EmGPdb-44" vertex="1">
          <mxGeometry y="130" width="280" height="8" as="geometry" />
        </mxCell>
        <mxCell id="DPEQAwRGzLsRV_EmGPdb-47" value="&lt;div&gt;&lt;font style=&quot;font-size: 14px;&quot;&gt;&lt;br&gt;&lt;/font&gt;&lt;/div&gt;&lt;div&gt;&lt;font size=&quot;3&quot;&gt;+ agregarEnvio(Envio e):void&lt;/font&gt;&lt;/div&gt;&lt;font size=&quot;3&quot;&gt;+ calcularMonto(Datelapse periodo): Real&lt;/font&gt;&lt;div&gt;&lt;br&gt;&lt;/div&gt;" style="text;html=1;strokeColor=none;fillColor=none;align=left;verticalAlign=middle;spacingLeft=4;spacingRight=4;overflow=hidden;rotatable=0;points=[[0,0.5],[1,0.5]];portConstraint=eastwest;whiteSpace=wrap;" parent="DPEQAwRGzLsRV_EmGPdb-44" vertex="1">
          <mxGeometry y="138" width="280" height="82" as="geometry" />
        </mxCell>
        <mxCell id="V4isV3QiupGOEIergdKK-2" style="edgeStyle=orthogonalEdgeStyle;rounded=0;orthogonalLoop=1;jettySize=auto;html=1;exitX=0.5;exitY=0;exitDx=0;exitDy=0;entryX=0.465;entryY=1.047;entryDx=0;entryDy=0;entryPerimeter=0;" edge="1" parent="1" source="DPEQAwRGzLsRV_EmGPdb-36" target="DPEQAwRGzLsRV_EmGPdb-47">
          <mxGeometry relative="1" as="geometry">
            <Array as="points">
              <mxPoint x="1580" y="320" />
              <mxPoint x="1330" y="320" />
            </Array>
          </mxGeometry>
        </mxCell>
      </root>
    </mxGraphModel>
  </diagram>
</mxfile>
